<?xml version="1.0" encoding="UTF-8"?>
<svg id="Layer_1" data-name="Layer 1" xmlns="http://www.w3.org/2000/svg" width="66.001" height="21" version="1.1" viewBox="0 0 66.001 21">
  <defs>
    <style>
      .cls-1 {
        fill: #000;
      }

      .cls-1, .cls-2 {
        stroke-width: 0px;
      }

      .cls-2 {
        fill: #fff;
      }
    </style>
  </defs>
  <rect class="cls-1" x="1" y="1" width="65" height="20" rx="2" ry="2"/>
  <path class="cls-1" d="M64,21H3c-1.103,0-2-.897-2-2V3c0-1.103.897-2,2-2h61c1.104,0,2.001.897,2.001,2v16c0,1.103-.897,2-2.001,2ZM3,1.301c-.938,0-1.699.762-1.699,1.699v16c0,.938.762,1.699,1.699,1.699h61c.938,0,1.7-.762,1.7-1.699V3c0-.938-.763-1.699-1.7-1.699H3Z"/>
  <rect class="cls-1" x="0" y="0" width="65" height="20" rx="2" ry="2"/>
  <path class="cls-1" d="M63,20H2c-1.103,0-2-.897-2-2V2C0,.897.897,0,2,0h61c1.104,0,2.001.897,2.001,2v16c0,1.103-.897,2-2.001,2ZM2,.301C1.062.301.301,1.063.301,2v16c0,.938.762,1.699,1.699,1.699h61c.938,0,1.7-.762,1.7-1.699V2c0-.938-.763-1.699-1.7-1.699H2Z"/>
  <rect class="cls-1" x="1" y="1" width="63" height="18" rx="2" ry="2"/>
  <path class="cls-2" d="M62,19H3c-1.103,0-2-.897-2-2V3c0-1.103.897-2,2-2h59c1.104,0,2.001.897,2.001,2v14c0,1.103-.897,2-2.001,2ZM3,1.801c-.661,0-1.199.538-1.199,1.199v14c0,.661.538,1.199,1.199,1.199h59c.662,0,1.2-.538,1.2-1.199V3c0-.661-.538-1.199-1.2-1.199H3Z"/>
  <rect class="cls-2" x="16.141" y="6.5" width="42.365" height="7"/>
  <path class="cls-2" d="M19.515,4.23v11.54c0,.26-.175.389-.25.433-.075.043-.274.13-.5,0l-10.017-5.77c-.226-.13-.25-.346-.25-.433s.024-.303.25-.433l10.017-5.77c.226-.13.425-.043.5,0,.075.043.25.173.25.433Z"/>
  <path class="cls-2" d="M8.998,10h0s10.017,5.77,10.017,5.77V4.23s0,0,0,0l-10.017,5.77M7.998,10c0-.337.167-.674.501-.867l10.017-5.77c.667-.384,1.499.097,1.499.867v11.54c0,.769-.832,1.251-1.499.867l-10.017-5.77c-.334-.192-.501-.529-.501-.867Z"/>
</svg>