<?xml version="1.0" encoding="UTF-8"?>
<svg id="Layer_1" data-name="Layer 1" xmlns="http://www.w3.org/2000/svg" width="66.001" height="21" version="1.1" viewBox="0 0 66.001 21">
  <defs>
    <style>
      .cls-1 {
        fill: #000;
      }

      .cls-1, .cls-2 {
        stroke-width: 0px;
      }

      .cls-2 {
        fill: #fff;
      }
    </style>
  </defs>
  <rect class="cls-1" x="0" y="1" width="65" height="20" rx="2" ry="2"/>
  <path class="cls-1" d="M63,21.001H2c-1.103,0-2-.897-2-2.001V3C0,1.897.897,1,2,1h61c1.104,0,2.001.897,2.001,2v16c0,1.104-.897,2.001-2.001,2.001ZM2,1.3c-.938,0-1.7.763-1.7,1.7v16c0,.938.763,1.7,1.7,1.7h61c.938,0,1.7-.763,1.7-1.7V3c0-.938-.763-1.7-1.7-1.7H2Z"/>
  <rect class="cls-1" x="1" width="65" height="20" rx="2" ry="2"/>
  <path class="cls-1" d="M64,20.001H3c-1.103,0-2-.897-2-2.001V2C1,.897,1.897,0,3,0h61c1.104,0,2.001.897,2.001,2v16c0,1.104-.897,2.001-2.001,2.001ZM3,.3c-.938,0-1.7.763-1.7,1.7v16c0,.938.763,1.7,1.7,1.7h61c.938,0,1.7-.763,1.7-1.7V2c0-.938-.763-1.7-1.7-1.7H3Z"/>
  <rect class="cls-1" x="2" y="1" width="63" height="18" rx="2" ry="2"/>
  <path class="cls-2" d="M63,19.001H4c-1.103,0-2-.897-2-2.001V3c0-1.103.897-2,2-2h59c1.104,0,2.001.897,2.001,2v14c0,1.104-.897,2.001-2.001,2.001ZM4,1.8c-.662,0-1.2.539-1.2,1.2v14c0,.662.539,1.2,1.2,1.2h59c.662,0,1.2-.538,1.2-1.2V3c0-.662-.538-1.2-1.2-1.2H4Z"/>
  <rect class="cls-2" x="7.494" y="6.5" width="42.365" height="7"/>
  <path class="cls-2" d="M46.485,15.77V4.23c0-.26.175-.389.25-.433.075-.043.274-.13.5,0l10.017,5.77c.226.13.25.346.25.433s-.024.303-.25.433l-10.017,5.77c-.226.13-.425.043-.5,0-.075-.043-.25-.173-.25-.433Z"/>
  <path class="cls-2" d="M57.003,10h0s-10.017-5.77-10.017-5.77v11.54s0,0,0,0l10.017-5.77h0M58.003,10c0,.337-.167.674-.501.867l-10.017,5.77c-.667.384-1.499-.097-1.499-.867V4.23c0-.769.832-1.251,1.499-.867l10.017,5.77c.334.192.501.529.501.867Z"/>
</svg>